name rise31.4854peak64.571fall78.6902.mot
datacolumns 19
datarows 27
range 12.496616 12.539953
endheader
time	ground_force1_vx	ground_force1_vy	ground_force1_vz	ground_force1_px	ground_force1_py	ground_force1_pz	ground_force2_vx	ground_force2_vy	ground_force2_vz	ground_force2_px	ground_force2_py	ground_force2_pz	ground_torque1_x	ground_torque1_y	ground_torque1_z	ground_torque2_x	ground_torque2_y	ground_torque2_z	
12.496616	-50.826139	846.714345	48.123346	0.119757	0.000000	0.094299	0.000000	0.000000	0.000000	0.000000	0.000000	0.000000	0.000000	20.988657	0.000000	0.000000	0.000000	0.000000	
12.498286	-51.127359	847.968887	48.459138	0.119026	0.000000	0.094348	0.000000	0.000000	0.000000	0.000000	0.000000	0.000000	0.000000	21.009213	0.000000	0.000000	0.000000	0.000000	
12.499952	-51.411064	849.125739	48.791172	0.118291	0.000000	0.094398	0.000000	0.000000	0.000000	0.000000	0.000000	0.000000	0.000000	21.024200	0.000000	0.000000	0.000000	0.000000	
12.501635	-51.677212	850.182279	49.118656	0.117554	0.000000	0.094450	0.000000	0.000000	0.000000	0.000000	0.000000	0.000000	0.000000	21.033588	0.000000	0.000000	0.000000	0.000000	
12.503287	-51.925788	851.136032	49.440789	0.116816	0.000000	0.094503	0.000000	0.000000	0.000000	0.000000	0.000000	0.000000	0.000000	21.037356	0.000000	0.000000	0.000000	0.000000	
12.504951	-52.156805	851.984677	49.756755	0.116076	0.000000	0.094556	0.000000	0.000000	0.000000	0.000000	0.000000	0.000000	0.000000	21.035498	0.000000	0.000000	0.000000	0.000000	
12.506618	-52.370307	852.726055	50.065733	0.115337	0.000000	0.094611	0.000000	0.000000	0.000000	0.000000	0.000000	0.000000	0.000000	21.028017	0.000000	0.000000	0.000000	0.000000	
12.508291	-52.566372	853.358177	50.366897	0.114598	0.000000	0.094667	0.000000	0.000000	0.000000	0.000000	0.000000	0.000000	0.000000	21.014930	0.000000	0.000000	0.000000	0.000000	
12.509959	-52.745113	853.879230	50.659418	0.113861	0.000000	0.094724	0.000000	0.000000	0.000000	0.000000	0.000000	0.000000	0.000000	20.996268	0.000000	0.000000	0.000000	0.000000	
12.511631	-52.906678	854.287581	50.942468	0.113127	0.000000	0.094781	0.000000	0.000000	0.000000	0.000000	0.000000	0.000000	0.000000	20.972072	0.000000	0.000000	0.000000	0.000000	
12.513286	-53.051258	854.581782	51.215222	0.112397	0.000000	0.094838	0.000000	0.000000	0.000000	0.000000	0.000000	0.000000	0.000000	20.942399	0.000000	0.000000	0.000000	0.000000	
12.514955	-53.179082	854.760575	51.476864	0.111671	0.000000	0.094896	0.000000	0.000000	0.000000	0.000000	0.000000	0.000000	0.000000	20.907318	0.000000	0.000000	0.000000	0.000000	
12.516621	-53.290423	854.822892	51.726583	0.110950	0.000000	0.094955	0.000000	0.000000	0.000000	0.000000	0.000000	0.000000	0.000000	20.866910	0.000000	0.000000	0.000000	0.000000	
12.518285	-53.385600	854.767859	51.963585	0.110236	0.000000	0.095013	0.000000	0.000000	0.000000	0.000000	0.000000	0.000000	0.000000	20.821271	0.000000	0.000000	0.000000	0.000000	
12.519958	-53.464976	854.594797	52.187087	0.109530	0.000000	0.095072	0.000000	0.000000	0.000000	0.000000	0.000000	0.000000	0.000000	20.770510	0.000000	0.000000	0.000000	0.000000	
12.521623	-53.528963	854.303218	52.396329	0.108831	0.000000	0.095130	0.000000	0.000000	0.000000	0.000000	0.000000	0.000000	0.000000	20.714748	0.000000	0.000000	0.000000	0.000000	
12.523284	-53.578021	853.892830	52.590566	0.108143	0.000000	0.095188	0.000000	0.000000	0.000000	0.000000	0.000000	0.000000	0.000000	20.654119	0.000000	0.000000	0.000000	0.000000	
12.524954	-53.612659	853.363528	52.769081	0.107464	0.000000	0.095245	0.000000	0.000000	0.000000	0.000000	0.000000	0.000000	0.000000	20.588771	0.000000	0.000000	0.000000	0.000000	
12.526617	-53.633437	852.715396	52.931181	0.106796	0.000000	0.095302	0.000000	0.000000	0.000000	0.000000	0.000000	0.000000	0.000000	20.518862	0.000000	0.000000	0.000000	0.000000	
12.528292	-53.640964	851.948701	53.076203	0.106140	0.000000	0.095358	0.000000	0.000000	0.000000	0.000000	0.000000	0.000000	0.000000	20.444562	0.000000	0.000000	0.000000	0.000000	
12.529952	-53.635901	851.063889	53.203512	0.105496	0.000000	0.095413	0.000000	0.000000	0.000000	0.000000	0.000000	0.000000	0.000000	20.366053	0.000000	0.000000	0.000000	0.000000	
12.531625	-53.618959	850.061576	53.312509	0.104865	0.000000	0.095468	0.000000	0.000000	0.000000	0.000000	0.000000	0.000000	0.000000	20.283526	0.000000	0.000000	0.000000	0.000000	
12.533290	-53.590899	848.942543	53.402630	0.104248	0.000000	0.095521	0.000000	0.000000	0.000000	0.000000	0.000000	0.000000	0.000000	20.197184	0.000000	0.000000	0.000000	0.000000	
12.534954	-53.552531	847.707731	53.473346	0.103645	0.000000	0.095573	0.000000	0.000000	0.000000	0.000000	0.000000	0.000000	0.000000	20.107239	0.000000	0.000000	0.000000	0.000000	
12.536624	-53.504713	846.358228	53.524169	0.103056	0.000000	0.095623	0.000000	0.000000	0.000000	0.000000	0.000000	0.000000	0.000000	20.013909	0.000000	0.000000	0.000000	0.000000	
12.538283	-53.448350	844.895260	53.554651	0.102483	0.000000	0.095672	0.000000	0.000000	0.000000	0.000000	0.000000	0.000000	0.000000	19.917424	0.000000	0.000000	0.000000	0.000000	
12.539953	-53.384393	843.320185	53.564385	0.101924	0.000000	0.095720	0.000000	0.000000	0.000000	0.000000	0.000000	0.000000	0.000000	19.818017	0.000000	0.000000	0.000000	0.000000	
